<mxfile host="Electron" agent="Mozilla/5.0 (Windows NT 10.0; Win64; x64) AppleWebKit/537.36 (KHTML, like Gecko) draw.io/28.0.6 Chrome/138.0.7204.100 Electron/37.2.3 Safari/537.36" version="28.0.6">
  <diagram name="Page-1" id="SpRGDxsBfz3jqkra-ryO">
    <mxGraphModel dx="1924" dy="1828" grid="1" gridSize="10" guides="1" tooltips="1" connect="1" arrows="1" fold="1" page="1" pageScale="1" pageWidth="827" pageHeight="1169" math="0" shadow="0">
      <root>
        <mxCell id="0" />
        <mxCell id="1" parent="0" />
        <mxCell id="37fVEJxlYI5hCLpPLEm2-25" value="Video Transcript" style="rounded=1;whiteSpace=wrap;html=1;dashed=1;dashPattern=8 8;labelPosition=center;verticalLabelPosition=bottom;align=center;verticalAlign=top;" parent="1" vertex="1">
          <mxGeometry x="660" y="-70" width="770" height="380" as="geometry" />
        </mxCell>
        <mxCell id="mtawYaKO-lGH9iTYJ4dF-1" value="ingestion_pipeline_service&lt;div&gt;&lt;div&gt;(user_repo,&lt;/div&gt;&lt;div&gt;prompt_loader,&lt;/div&gt;&lt;div&gt;channel_repo,&lt;/div&gt;&lt;div&gt;video_source,&lt;/div&gt;&lt;div&gt;video_repo,&lt;/div&gt;&lt;div&gt;transcription_client,&lt;/div&gt;&lt;div&gt;openai_client,&lt;/div&gt;&lt;div&gt;tweet_generation_repo,&lt;/div&gt;&lt;div&gt;tweet_repo)&lt;/div&gt;&lt;/div&gt;&lt;div&gt;&lt;br&gt;&lt;/div&gt;&lt;div&gt;publishing_pipeline_service&lt;/div&gt;&lt;div&gt;(&lt;span style=&quot;background-color: light-dark(#ffffff, var(--ge-dark-color, #121212)); color: light-dark(rgb(0, 0, 0), rgb(255, 255, 255));&quot;&gt;user_repo,&lt;/span&gt;&lt;/div&gt;&lt;div&gt;&lt;span style=&quot;background-color: light-dark(#ffffff, var(--ge-dark-color, #121212)); color: light-dark(rgb(0, 0, 0), rgb(255, 255, 255));&quot;&gt;tweet_repo,&lt;/span&gt;&lt;/div&gt;&lt;div&gt;&lt;span style=&quot;background-color: light-dark(#ffffff, var(--ge-dark-color, #121212)); color: light-dark(rgb(0, 0, 0), rgb(255, 255, 255));&quot;&gt;twitter_client)&lt;/span&gt;&lt;/div&gt;&lt;div&gt;&lt;br&gt;&lt;/div&gt;&lt;div&gt;&lt;br&gt;&lt;/div&gt;" style="edgeStyle=orthogonalEdgeStyle;rounded=0;orthogonalLoop=1;jettySize=auto;html=1;align=right;" parent="1" source="6GBo-MGXtRTwtD-Rmwj8-2" target="6GBo-MGXtRTwtD-Rmwj8-3" edge="1">
          <mxGeometry x="0.0145" y="-15" relative="1" as="geometry">
            <mxPoint as="offset" />
          </mxGeometry>
        </mxCell>
        <mxCell id="6GBo-MGXtRTwtD-Rmwj8-2" value="main" style="rounded=1;whiteSpace=wrap;html=1;" parent="1" vertex="1">
          <mxGeometry x="-235" y="-145" width="100" height="40" as="geometry" />
        </mxCell>
        <mxCell id="6GBo-MGXtRTwtD-Rmwj8-8" style="edgeStyle=orthogonalEdgeStyle;rounded=0;orthogonalLoop=1;jettySize=auto;html=1;" parent="1" source="6GBo-MGXtRTwtD-Rmwj8-3" target="6GBo-MGXtRTwtD-Rmwj8-6" edge="1">
          <mxGeometry relative="1" as="geometry" />
        </mxCell>
        <mxCell id="6GBo-MGXtRTwtD-Rmwj8-3" value="pipeline_controller.py" style="rounded=1;whiteSpace=wrap;html=1;" parent="1" vertex="1">
          <mxGeometry x="-250" y="240" width="130" height="50" as="geometry" />
        </mxCell>
        <mxCell id="6GBo-MGXtRTwtD-Rmwj8-5" value="" style="edgeStyle=orthogonalEdgeStyle;rounded=0;orthogonalLoop=1;jettySize=auto;html=1;entryX=0;entryY=0.5;entryDx=0;entryDy=0;" parent="1" source="6GBo-MGXtRTwtD-Rmwj8-4" target="6GBo-MGXtRTwtD-Rmwj8-3" edge="1">
          <mxGeometry y="25" relative="1" as="geometry">
            <mxPoint as="offset" />
          </mxGeometry>
        </mxCell>
        <mxCell id="6GBo-MGXtRTwtD-Rmwj8-4" value="API" style="rounded=1;whiteSpace=wrap;html=1;" parent="1" vertex="1">
          <mxGeometry x="-520" y="235" width="30" height="60" as="geometry" />
        </mxCell>
        <mxCell id="6GBo-MGXtRTwtD-Rmwj8-15" value="get new videos of the channel" style="rounded=0;orthogonalLoop=1;jettySize=auto;html=1;entryX=0;entryY=0.5;entryDx=0;entryDy=0;exitX=1;exitY=0.5;exitDx=0;exitDy=0;edgeStyle=orthogonalEdgeStyle;" parent="1" source="6GBo-MGXtRTwtD-Rmwj8-6" target="6GBo-MGXtRTwtD-Rmwj8-11" edge="1">
          <mxGeometry x="0.5385" y="15" relative="1" as="geometry">
            <Array as="points">
              <mxPoint x="460" y="265" />
              <mxPoint x="460" y="-150" />
            </Array>
            <mxPoint x="377" y="255.00000000000023" as="sourcePoint" />
            <mxPoint as="offset" />
          </mxGeometry>
        </mxCell>
        <mxCell id="6GBo-MGXtRTwtD-Rmwj8-22" value="get transcript of the video" style="edgeStyle=orthogonalEdgeStyle;rounded=0;orthogonalLoop=1;jettySize=auto;html=1;entryX=0;entryY=0.5;entryDx=0;entryDy=0;" parent="1" source="6GBo-MGXtRTwtD-Rmwj8-6" target="6GBo-MGXtRTwtD-Rmwj8-16" edge="1">
          <mxGeometry x="0.4377" y="10" relative="1" as="geometry">
            <Array as="points">
              <mxPoint x="487" y="265" />
              <mxPoint x="487" y="90" />
            </Array>
            <mxPoint as="offset" />
          </mxGeometry>
        </mxCell>
        <mxCell id="6GBo-MGXtRTwtD-Rmwj8-23" value="generate tweets from transcript" style="rounded=0;orthogonalLoop=1;jettySize=auto;html=1;entryX=0;entryY=0.5;entryDx=0;entryDy=0;exitX=1;exitY=0.5;exitDx=0;exitDy=0;edgeStyle=orthogonalEdgeStyle;" parent="1" source="6GBo-MGXtRTwtD-Rmwj8-6" target="6GBo-MGXtRTwtD-Rmwj8-20" edge="1">
          <mxGeometry x="0.6267" y="10" relative="1" as="geometry">
            <mxPoint x="387" y="275" as="sourcePoint" />
            <mxPoint x="427" y="340" as="targetPoint" />
            <mxPoint as="offset" />
            <Array as="points">
              <mxPoint x="467" y="265" />
              <mxPoint x="467" y="600" />
            </Array>
          </mxGeometry>
        </mxCell>
        <mxCell id="6GBo-MGXtRTwtD-Rmwj8-33" value="publish tweet" style="rounded=0;orthogonalLoop=1;jettySize=auto;html=1;entryX=0;entryY=0.5;entryDx=0;entryDy=0;exitX=1;exitY=0.5;exitDx=0;exitDy=0;edgeStyle=orthogonalEdgeStyle;" parent="1" source="fER5kQKjIwSkImDIx6LC-20" target="6GBo-MGXtRTwtD-Rmwj8-21" edge="1">
          <mxGeometry x="0.4881" y="10" relative="1" as="geometry">
            <Array as="points">
              <mxPoint x="437" y="964" />
              <mxPoint x="437" y="1073" />
            </Array>
            <mxPoint as="offset" />
          </mxGeometry>
        </mxCell>
        <mxCell id="YeQcEhxph-pK-XzqHGoJ-7" value="generate complete prompt" style="edgeStyle=orthogonalEdgeStyle;rounded=0;orthogonalLoop=1;jettySize=auto;html=1;" parent="1" source="6GBo-MGXtRTwtD-Rmwj8-6" target="37fVEJxlYI5hCLpPLEm2-8" edge="1">
          <mxGeometry x="0.5066" y="10" relative="1" as="geometry">
            <mxPoint x="684" y="430" as="targetPoint" />
            <mxPoint as="offset" />
            <Array as="points">
              <mxPoint x="480" y="265" />
              <mxPoint x="480" y="430" />
            </Array>
          </mxGeometry>
        </mxCell>
        <mxCell id="37fVEJxlYI5hCLpPLEm2-13" value="compose_full_prompt (prompt,&amp;nbsp;transcript )" style="edgeStyle=orthogonalEdgeStyle;rounded=0;orthogonalLoop=1;jettySize=auto;html=1;entryX=0;entryY=0.5;entryDx=0;entryDy=0;" parent="1" source="6GBo-MGXtRTwtD-Rmwj8-6" target="37fVEJxlYI5hCLpPLEm2-12" edge="1">
          <mxGeometry x="0.5471" y="10" relative="1" as="geometry">
            <Array as="points">
              <mxPoint x="470" y="265" />
              <mxPoint x="470" y="520" />
            </Array>
            <mxPoint as="offset" />
          </mxGeometry>
        </mxCell>
        <mxCell id="37fVEJxlYI5hCLpPLEm2-16" value="get transcript of the video" style="edgeStyle=orthogonalEdgeStyle;rounded=0;orthogonalLoop=1;jettySize=auto;html=1;entryX=0;entryY=0.5;entryDx=0;entryDy=0;" parent="1" source="6GBo-MGXtRTwtD-Rmwj8-6" target="37fVEJxlYI5hCLpPLEm2-15" edge="1">
          <mxGeometry x="0.2412" y="9" relative="1" as="geometry">
            <Array as="points">
              <mxPoint x="554" y="265" />
              <mxPoint x="554" y="229" />
            </Array>
            <mxPoint as="offset" />
          </mxGeometry>
        </mxCell>
        <mxCell id="6GBo-MGXtRTwtD-Rmwj8-6" value="IngestionPipelineService" style="rounded=1;whiteSpace=wrap;html=1;" parent="1" vertex="1">
          <mxGeometry x="207" y="240" width="180" height="50" as="geometry" />
        </mxCell>
        <mxCell id="6GBo-MGXtRTwtD-Rmwj8-18" value="fetch_new_videos (channel_id: str, max_videos: int)" style="edgeStyle=orthogonalEdgeStyle;rounded=0;orthogonalLoop=1;jettySize=auto;html=1;" parent="1" source="6GBo-MGXtRTwtD-Rmwj8-11" target="6GBo-MGXtRTwtD-Rmwj8-17" edge="1">
          <mxGeometry x="-0.0745" y="10" relative="1" as="geometry">
            <mxPoint x="747" y="180" as="sourcePoint" />
            <mxPoint as="offset" />
          </mxGeometry>
        </mxCell>
        <mxCell id="6GBo-MGXtRTwtD-Rmwj8-27" value="transcribe (video_id: str, language: str)" style="edgeStyle=orthogonalEdgeStyle;rounded=0;orthogonalLoop=1;jettySize=auto;html=1;" parent="1" source="6GBo-MGXtRTwtD-Rmwj8-16" target="6GBo-MGXtRTwtD-Rmwj8-26" edge="1">
          <mxGeometry x="0.0059" y="9" relative="1" as="geometry">
            <mxPoint as="offset" />
          </mxGeometry>
        </mxCell>
        <mxCell id="6GBo-MGXtRTwtD-Rmwj8-17" value="Google YouTube API" style="ellipse;whiteSpace=wrap;html=1;" parent="1" vertex="1">
          <mxGeometry x="1290" y="-185" width="80" height="70" as="geometry" />
        </mxCell>
        <mxCell id="6GBo-MGXtRTwtD-Rmwj8-29" value="generate_tweets (prompt: str, max_sentences: int, model: str)" style="edgeStyle=orthogonalEdgeStyle;rounded=0;orthogonalLoop=1;jettySize=auto;html=1;entryX=0;entryY=0.5;entryDx=0;entryDy=0;" parent="1" source="6GBo-MGXtRTwtD-Rmwj8-20" target="6GBo-MGXtRTwtD-Rmwj8-28" edge="1">
          <mxGeometry x="-0.0112" y="15" relative="1" as="geometry">
            <mxPoint as="offset" />
          </mxGeometry>
        </mxCell>
        <mxCell id="6GBo-MGXtRTwtD-Rmwj8-20" value="OpenAIClient" style="rounded=1;whiteSpace=wrap;html=1;" parent="1" vertex="1">
          <mxGeometry x="682" y="580" width="130" height="40" as="geometry" />
        </mxCell>
        <mxCell id="6GBo-MGXtRTwtD-Rmwj8-32" value="publish (text: str, limit: int)" style="edgeStyle=orthogonalEdgeStyle;rounded=0;orthogonalLoop=1;jettySize=auto;html=1;" parent="1" source="6GBo-MGXtRTwtD-Rmwj8-21" target="6GBo-MGXtRTwtD-Rmwj8-30" edge="1">
          <mxGeometry x="-0.0558" y="10" relative="1" as="geometry">
            <mxPoint as="offset" />
          </mxGeometry>
        </mxCell>
        <mxCell id="6GBo-MGXtRTwtD-Rmwj8-21" value="TwitterClient" style="rounded=1;whiteSpace=wrap;html=1;" parent="1" vertex="1">
          <mxGeometry x="661" y="1053" width="130" height="40" as="geometry" />
        </mxCell>
        <mxCell id="6GBo-MGXtRTwtD-Rmwj8-26" value="YouTube&lt;div&gt;Data API&lt;/div&gt;" style="ellipse;whiteSpace=wrap;html=1;" parent="1" vertex="1">
          <mxGeometry x="1300" y="54.5" width="94.5" height="71" as="geometry" />
        </mxCell>
        <mxCell id="6GBo-MGXtRTwtD-Rmwj8-28" value="OpenAI API" style="ellipse;whiteSpace=wrap;html=1;" parent="1" vertex="1">
          <mxGeometry x="1270.25" y="570" width="83" height="60" as="geometry" />
        </mxCell>
        <mxCell id="6GBo-MGXtRTwtD-Rmwj8-30" value="X v2 API" style="ellipse;whiteSpace=wrap;html=1;" parent="1" vertex="1">
          <mxGeometry x="1112" y="1043" width="83" height="60" as="geometry" />
        </mxCell>
        <mxCell id="6GBo-MGXtRTwtD-Rmwj8-34" value="&lt;div style=&quot;text-align: center;&quot;&gt;&lt;span style=&quot;background-color: transparent; color: light-dark(rgb(0, 0, 0), rgb(255, 255, 255));&quot;&gt;mongo collection&amp;nbsp;&lt;/span&gt;&lt;/div&gt;&lt;div style=&quot;text-align: center;&quot;&gt;&lt;span style=&quot;background-color: transparent; color: light-dark(rgb(0, 0, 0), rgb(255, 255, 255));&quot;&gt;{&lt;b&gt;users&lt;/b&gt;}&lt;/span&gt;&lt;/div&gt;&lt;div&gt;&lt;div&gt;{&lt;/div&gt;&lt;div&gt;&amp;nbsp; _id: ObjectId,&lt;/div&gt;&lt;div&gt;&amp;nbsp; username: String,&amp;nbsp; &amp;nbsp; &amp;nbsp; &amp;nbsp; &amp;nbsp; &amp;nbsp; &amp;nbsp; &amp;nbsp; &amp;nbsp; // Email o nombre de usuario&lt;/div&gt;&lt;div&gt;&amp;nbsp; openaiApiKey: String,&amp;nbsp; &amp;nbsp; &amp;nbsp; &amp;nbsp; &amp;nbsp; &amp;nbsp; // (opcional) si es por usuario&lt;/div&gt;&lt;div&gt;&amp;nbsp; UserTwitterCredentials:&amp;nbsp;&lt;/div&gt;&lt;div&gt;&lt;span style=&quot;white-space: pre;&quot;&gt;&#x9;&lt;/span&gt;{&lt;/div&gt;&lt;/div&gt;&lt;blockquote style=&quot;margin: 0 0 0 40px; border: none; padding: 0px;&quot;&gt;&lt;div&gt;&lt;div&gt;&amp;nbsp; &amp;nbsp; &lt;span style=&quot;white-space: pre;&quot;&gt;&#x9;&lt;/span&gt;oauth1AccessToken: String,&amp;nbsp; &amp;nbsp; &amp;nbsp; &amp;nbsp; &amp;nbsp; &amp;nbsp;&amp;nbsp;&lt;/div&gt;&lt;/div&gt;&lt;div&gt;&lt;div&gt;&amp;nbsp; &amp;nbsp; &lt;span style=&quot;white-space: pre;&quot;&gt;&#x9;&lt;/span&gt;oauth1AccessTokenSecret: String,&lt;/div&gt;&lt;/div&gt;&lt;div&gt;&lt;div&gt;&lt;span style=&quot;background-color: transparent; color: light-dark(rgb(255, 255, 255), rgb(18, 18, 18));&quot;&gt;&lt;span style=&quot;white-space: pre;&quot;&gt;&#x9;&lt;/span&gt;&lt;/span&gt;oauth2AccessToken&lt;span style=&quot;background-color: transparent;&quot;&gt;: String&lt;/span&gt;&lt;span style=&quot;background-color: transparent;&quot;&gt;,&lt;/span&gt;&lt;/div&gt;&lt;/div&gt;&lt;div&gt;&lt;div&gt;&lt;span style=&quot;background-color: transparent;&quot;&gt;&lt;span style=&quot;white-space: pre;&quot;&gt;&#x9;&lt;/span&gt;oauth2AccessTokenExpiresAt: datetime,&lt;/span&gt;&lt;/div&gt;&lt;/div&gt;&lt;div&gt;&lt;div&gt;&lt;span style=&quot;background-color: transparent;&quot;&gt;&lt;span style=&quot;white-space: pre;&quot;&gt;&#x9;&lt;/span&gt;&lt;/span&gt;oauth2RefreshToken&lt;span style=&quot;background-color: transparent;&quot;&gt;: String,&lt;/span&gt;&lt;/div&gt;&lt;/div&gt;&lt;div&gt;&lt;div&gt;&lt;span style=&quot;background-color: transparent;&quot;&gt;&lt;span style=&quot;white-space: pre;&quot;&gt;&#x9;&lt;/span&gt;&lt;/span&gt;oauth2RefreshTokenExpiresAt&lt;span style=&quot;background-color: transparent;&quot;&gt;: datetime,&lt;/span&gt;&lt;/div&gt;&lt;/div&gt;&lt;div&gt;&lt;div&gt;&lt;span style=&quot;background-color: transparent;&quot;&gt;&lt;div&gt;&lt;span style=&quot;white-space: normal;&quot;&gt;&lt;span style=&quot;white-space:pre&quot;&gt;&#x9;&lt;/span&gt;screenName : String&lt;/span&gt;&lt;/div&gt;&lt;/span&gt;&lt;/div&gt;&lt;/div&gt;&lt;/blockquote&gt;&lt;div&gt;&lt;div&gt;&lt;span style=&quot;background-color: transparent;&quot;&gt;&lt;div&gt;&lt;span style=&quot;white-space: normal;&quot;&gt;&lt;span style=&quot;white-space: pre;&quot;&gt;&#x9;&lt;/span&gt;},&lt;/span&gt;&lt;/div&gt;&lt;/span&gt;&lt;/div&gt;&lt;div&gt;&amp;nbsp;&amp;nbsp;&lt;span style=&quot;background-color: transparent;&quot;&gt;ingestionPollingInterval: Number,&lt;/span&gt;&lt;span style=&quot;background-color: transparent; white-space: pre;&quot;&gt;&#x9;&#x9;&lt;/span&gt;&lt;span style=&quot;background-color: transparent;&quot;&gt;//in minutes&lt;/span&gt;&lt;/div&gt;&lt;div&gt;&amp;nbsp; publishingPollingInterval: Number,&lt;span style=&quot;white-space:pre&quot;&gt;&#x9;&lt;/span&gt;//in minutes&lt;/div&gt;&lt;div&gt;&amp;nbsp; maxTweetsToFetchFromDB: Number,&lt;span style=&quot;white-space:pre&quot;&gt;&#x9;&lt;/span&gt;// Max tweets to fetch from &#39;tweets&#39;&lt;/div&gt;&lt;div&gt;&amp;nbsp; maxTweetsToPublish: Number,&lt;span style=&quot;white-space:pre&quot;&gt;&#x9;&lt;/span&gt;// Max tweets to publish in X&lt;/div&gt;&lt;div&gt;&amp;nbsp; tweetFetchSortOrder: String,&lt;span style=&quot;white-space:pre&quot;&gt;&#x9;&lt;/span&gt;// oldest first, newest first, random&lt;/div&gt;&lt;div&gt;&amp;nbsp; createdAt: Date,&lt;/div&gt;&lt;div&gt;&amp;nbsp; updatedAt: Date&lt;/div&gt;&lt;div&gt;}&lt;/div&gt;&lt;/div&gt;" style="rounded=0;html=1;align=left;whiteSpace=wrap;fillColor=#60a917;strokeColor=#2D7600;fontColor=#ffffff;" parent="1" vertex="1">
          <mxGeometry x="-50" y="1262" width="480" height="377" as="geometry" />
        </mxCell>
        <mxCell id="6GBo-MGXtRTwtD-Rmwj8-35" value="&lt;div style=&quot;text-align: center;&quot;&gt;&lt;span style=&quot;background-color: transparent; color: light-dark(rgb(0, 0, 0), rgb(255, 255, 255));&quot;&gt;mongo collection&amp;nbsp;&lt;/span&gt;&lt;/div&gt;&lt;div style=&quot;text-align: center;&quot;&gt;&lt;span style=&quot;background-color: transparent; color: light-dark(rgb(0, 0, 0), rgb(255, 255, 255));&quot;&gt;{&lt;/span&gt;&lt;b&gt;channels&lt;/b&gt;&lt;span style=&quot;background-color: transparent; color: light-dark(rgb(0, 0, 0), rgb(255, 255, 255));&quot;&gt;}&lt;/span&gt;&lt;/div&gt;&lt;div&gt;&lt;div&gt;{&lt;/div&gt;&lt;div&gt;&amp;nbsp; _id: ObjectId,&lt;/div&gt;&lt;div&gt;&amp;nbsp; userId: ObjectId,&amp;nbsp; &amp;nbsp; &amp;nbsp; &amp;nbsp; &amp;nbsp; &amp;nbsp; &amp;nbsp; &amp;nbsp; &lt;span style=&quot;white-space: pre;&quot;&gt;&#x9;&lt;/span&gt;&amp;nbsp;// FK → users._id&lt;/div&gt;&lt;div&gt;&amp;nbsp; youtubeChannelId: String,&amp;nbsp; &amp;nbsp; &amp;nbsp; &amp;nbsp;// e.g. &quot;UC_xxx&quot;&lt;/div&gt;&lt;div&gt;&amp;nbsp; title: String,&lt;/div&gt;&lt;div&gt;&amp;nbsp; pollingInterval: Number,&amp;nbsp; &amp;nbsp; &amp;nbsp; &amp;nbsp; // En minutos (opcional)&lt;/div&gt;&lt;div&gt;&lt;span style=&quot;background-color: transparent; color: light-dark(rgb(255, 255, 255), rgb(18, 18, 18));&quot;&gt;&amp;nbsp;&amp;nbsp;&lt;/span&gt;&lt;span style=&quot;background-color: transparent;&quot;&gt;maxVideosToFetchFromChannel: Number,&amp;nbsp;&lt;/span&gt;&lt;/div&gt;&lt;div&gt;&lt;span style=&quot;background-color: transparent;&quot;&gt;&lt;div&gt;&amp;nbsp; lastPolledAt: Date,&lt;/div&gt;&lt;div&gt;&lt;div&gt;&amp;nbsp; createdAt: Date,&lt;/div&gt;&lt;/div&gt;&lt;div&gt;&lt;div&gt;&amp;nbsp; updatedAt: Date&lt;/div&gt;&lt;div&gt;}&lt;/div&gt;&lt;/div&gt;&lt;/span&gt;&lt;/div&gt;&lt;/div&gt;" style="rounded=0;whiteSpace=wrap;html=1;align=left;fillColor=#60a917;strokeColor=#2D7600;fontColor=#ffffff;" parent="1" vertex="1">
          <mxGeometry x="450" y="1384" width="310" height="210" as="geometry" />
        </mxCell>
        <mxCell id="6GBo-MGXtRTwtD-Rmwj8-36" value="&lt;div style=&quot;text-align: center;&quot;&gt;&lt;span style=&quot;background-color: transparent; color: light-dark(rgb(0, 0, 0), rgb(255, 255, 255));&quot;&gt;mongo collection&amp;nbsp;&lt;/span&gt;&lt;/div&gt;&lt;div style=&quot;text-align: center;&quot;&gt;&lt;span style=&quot;background-color: transparent; color: light-dark(rgb(0, 0, 0), rgb(255, 255, 255));&quot;&gt;{&lt;/span&gt;&lt;b&gt;videos&lt;/b&gt;&lt;span style=&quot;background-color: transparent; color: light-dark(rgb(0, 0, 0), rgb(255, 255, 255));&quot;&gt;}&lt;/span&gt;&lt;/div&gt;&lt;div&gt;&lt;div&gt;{&lt;/div&gt;&lt;div&gt;&amp;nbsp; _id: ObjectId,&lt;/div&gt;&lt;div&gt;&amp;nbsp; channelId: ObjectId,&amp;nbsp; &amp;nbsp; &amp;nbsp; &amp;nbsp; &amp;nbsp; &amp;nbsp; // FK → channels._id&lt;/div&gt;&lt;div&gt;&amp;nbsp; userId: ObjectId,&amp;nbsp; &amp;nbsp; &amp;nbsp; &amp;nbsp; &amp;nbsp; &amp;nbsp; &amp;nbsp; &amp;nbsp;// Redundante, pero útil para consultas&lt;/div&gt;&lt;div&gt;&amp;nbsp; youtubeVideoId: String,&amp;nbsp; &amp;nbsp; &amp;nbsp; &amp;nbsp; &amp;nbsp;// e.g. &quot;Qa3ThE9mv8c&quot;&lt;/div&gt;&lt;div&gt;&amp;nbsp; title: String,&lt;/div&gt;&lt;div&gt;&amp;nbsp; url: String,&lt;/div&gt;&lt;div&gt;&amp;nbsp; transcript: String,&amp;nbsp; &amp;nbsp; &amp;nbsp; &amp;nbsp; &amp;nbsp; &amp;nbsp; &amp;nbsp;// Texto plano unificado&lt;/div&gt;&lt;div&gt;&amp;nbsp; transcriptSegments: [&amp;nbsp; &amp;nbsp; &amp;nbsp; &amp;nbsp; &amp;nbsp; &amp;nbsp;// (opcional) si guardas por fragmentos&lt;/div&gt;&lt;div&gt;&amp;nbsp; &amp;nbsp; { start: Number, duration: Number, text: String }&lt;/div&gt;&lt;div&gt;&amp;nbsp; ],&lt;/div&gt;&lt;div&gt;&amp;nbsp; transcriptFetchedAt: Date,&lt;/div&gt;&lt;div&gt;&amp;nbsp; tweetsGenerated: Boolean,&amp;nbsp; &amp;nbsp; &amp;nbsp; &amp;nbsp;// Flag para control rápido&lt;/div&gt;&lt;div&gt;&amp;nbsp; createdAt: Date,&lt;/div&gt;&lt;div&gt;&amp;nbsp; updatedAt: Date&lt;/div&gt;&lt;div&gt;}&lt;/div&gt;&lt;/div&gt;&lt;div&gt;&lt;br&gt;&lt;/div&gt;" style="rounded=0;whiteSpace=wrap;html=1;align=left;fillColor=#60a917;strokeColor=#2D7600;fontColor=#ffffff;" parent="1" vertex="1">
          <mxGeometry x="10" y="1720.5" width="410" height="295" as="geometry" />
        </mxCell>
        <mxCell id="6GBo-MGXtRTwtD-Rmwj8-37" value="&lt;div style=&quot;text-align: center;&quot;&gt;&lt;span style=&quot;background-color: transparent; color: light-dark(rgb(0, 0, 0), rgb(255, 255, 255));&quot;&gt;mongo collection&amp;nbsp;&lt;/span&gt;&lt;/div&gt;&lt;div style=&quot;text-align: center;&quot;&gt;&lt;span style=&quot;background-color: transparent; color: light-dark(rgb(0, 0, 0), rgb(255, 255, 255));&quot;&gt;{&lt;/span&gt;&lt;b&gt;tweet_generations&lt;/b&gt;&lt;span style=&quot;background-color: transparent; color: light-dark(rgb(0, 0, 0), rgb(255, 255, 255));&quot;&gt;}&lt;/span&gt;&lt;/div&gt;&lt;div&gt;&lt;div&gt;&lt;div&gt;{&lt;/div&gt;&lt;div&gt;&amp;nbsp; _id: ObjectId,&lt;/div&gt;&lt;div&gt;&amp;nbsp; userId: ObjectId,&lt;span style=&quot;white-space: pre;&quot;&gt;&#x9;&lt;span style=&quot;white-space: pre;&quot;&gt;&#x9;&lt;/span&gt;&lt;/span&gt;&lt;span style=&quot;background-color: transparent; white-space: pre;&quot;&gt;// FK → users._id&lt;/span&gt;&lt;/div&gt;&lt;div&gt;&amp;nbsp; videoId: ObjectId,&amp;nbsp; &amp;nbsp; &amp;nbsp; &amp;nbsp; &amp;nbsp; &amp;nbsp; &amp;nbsp; // FK → videos._id&lt;/div&gt;&lt;div&gt;&amp;nbsp; openaiRequest: {&lt;/div&gt;&lt;div&gt;&amp;nbsp; &amp;nbsp; &amp;nbsp;prompt: String,&lt;/div&gt;&lt;div&gt;&amp;nbsp; &amp;nbsp; &amp;nbsp;model: String,&lt;/div&gt;&lt;div&gt;&amp;nbsp; &amp;nbsp; &amp;nbsp;temperature: Number,&lt;/div&gt;&lt;div&gt;&amp;nbsp; &amp;nbsp; &amp;nbsp;maxTokens: Number&lt;/div&gt;&lt;div&gt;&amp;nbsp; },&lt;/div&gt;&lt;div&gt;&amp;nbsp; generatedAt: Date&lt;/div&gt;&lt;div&gt;}&lt;/div&gt;&lt;/div&gt;&lt;/div&gt;" style="rounded=0;whiteSpace=wrap;html=1;align=left;fillColor=#60a917;strokeColor=#2D7600;fontColor=#ffffff;" parent="1" vertex="1">
          <mxGeometry x="450" y="1758" width="290" height="220" as="geometry" />
        </mxCell>
        <mxCell id="6GBo-MGXtRTwtD-Rmwj8-38" value="&lt;div style=&quot;text-align: center;&quot;&gt;&lt;span style=&quot;background-color: transparent; color: light-dark(rgb(0, 0, 0), rgb(255, 255, 255));&quot;&gt;mongo collection&amp;nbsp;&lt;/span&gt;&lt;/div&gt;&lt;div style=&quot;text-align: center;&quot;&gt;&lt;span style=&quot;background-color: transparent; color: light-dark(rgb(0, 0, 0), rgb(255, 255, 255));&quot;&gt;{&lt;/span&gt;&lt;b&gt;tweets&lt;/b&gt;&lt;span style=&quot;background-color: transparent; color: light-dark(rgb(0, 0, 0), rgb(255, 255, 255));&quot;&gt;}&lt;/span&gt;&lt;/div&gt;&lt;div&gt;&lt;div&gt;{&lt;/div&gt;&lt;div&gt;&amp;nbsp; _id: ObjectId,&lt;/div&gt;&lt;div&gt;&amp;nbsp; userId: ObjectId,&lt;span style=&quot;white-space: pre;&quot;&gt;&#x9;&lt;/span&gt;&lt;span style=&quot;white-space: pre;&quot;&gt;&#x9;&lt;/span&gt;&lt;span style=&quot;white-space: pre;&quot;&gt;&#x9;&lt;/span&gt;&lt;span style=&quot;background-color: transparent;&quot;&gt;// FK → users._id&lt;/span&gt;&lt;/div&gt;&lt;div&gt;&amp;nbsp; videoId: ObjectId,&lt;span style=&quot;white-space: pre;&quot;&gt;&#x9;&lt;/span&gt;&lt;span style=&quot;white-space: pre;&quot;&gt;&#x9;&lt;/span&gt;&lt;span style=&quot;white-space: pre;&quot;&gt;&#x9;&lt;/span&gt;&lt;span style=&quot;background-color: transparent;&quot;&gt;// FK → videos._id&lt;/span&gt;&lt;/div&gt;&lt;div&gt;&amp;nbsp; generationId: ObjectId,&amp;nbsp; &amp;nbsp; &amp;nbsp; &amp;nbsp; &amp;nbsp;// FK → tweet_generations._id&lt;/div&gt;&lt;div&gt;&amp;nbsp; text: String,&lt;/div&gt;&lt;div&gt;&amp;nbsp; &lt;font style=&quot;color: rgb(255, 255, 255);&quot;&gt;index_in_generation&lt;/font&gt;: Number,&amp;nbsp; &amp;nbsp; &amp;nbsp; &amp;nbsp; &amp;nbsp; &amp;nbsp; &amp;nbsp; &amp;nbsp; &amp;nbsp; // Posición dentro de la generación (opcional)&lt;/div&gt;&lt;div&gt;&amp;nbsp; published: Boolean,&amp;nbsp; &amp;nbsp; &amp;nbsp; &amp;nbsp; &amp;nbsp; &amp;nbsp; &amp;nbsp;// True si ya fue publicado&lt;/div&gt;&lt;div&gt;&amp;nbsp; publishedAt: Date,&amp;nbsp; &amp;nbsp; &amp;nbsp; &amp;nbsp; &amp;nbsp; &amp;nbsp; &amp;nbsp; // Fecha de publicación en X&lt;/div&gt;&lt;div&gt;&amp;nbsp; &lt;font style=&quot;color: rgb(255, 255, 255);&quot;&gt;twitterId&lt;/font&gt;: String,&amp;nbsp; &amp;nbsp; &amp;nbsp; &amp;nbsp; // ID del tweet en X&lt;/div&gt;&lt;div&gt;&amp;nbsp; createdAt: Date,&lt;/div&gt;&lt;div&gt;&lt;div&gt;&amp;nbsp; updatedAt: Date&lt;/div&gt;&lt;/div&gt;&lt;div&gt;}&lt;/div&gt;&lt;/div&gt;" style="rounded=0;whiteSpace=wrap;html=1;align=left;fillColor=#60a917;strokeColor=#2D7600;fontColor=#ffffff;" parent="1" vertex="1">
          <mxGeometry x="822" y="1733" width="498" height="245" as="geometry" />
        </mxCell>
        <mxCell id="fER5kQKjIwSkImDIx6LC-4" value="mongoDB" style="shape=cylinder3;whiteSpace=wrap;html=1;boundedLbl=1;backgroundOutline=1;size=15;" parent="1" vertex="1">
          <mxGeometry x="1550" y="-50" width="70" height="90" as="geometry" />
        </mxCell>
        <mxCell id="fER5kQKjIwSkImDIx6LC-5" value="MongoChannelRepository" style="rounded=1;whiteSpace=wrap;html=1;" parent="1" vertex="1">
          <mxGeometry x="597" y="-270" width="150" height="40" as="geometry" />
        </mxCell>
        <mxCell id="fER5kQKjIwSkImDIx6LC-6" value="get channels of the user" style="rounded=0;orthogonalLoop=1;jettySize=auto;html=1;entryX=0;entryY=0.5;entryDx=0;entryDy=0;exitX=1;exitY=0.5;exitDx=0;exitDy=0;edgeStyle=orthogonalEdgeStyle;" parent="1" source="6GBo-MGXtRTwtD-Rmwj8-6" target="fER5kQKjIwSkImDIx6LC-5" edge="1">
          <mxGeometry x="0.6319" y="16" relative="1" as="geometry">
            <Array as="points">
              <mxPoint x="437" y="265" />
              <mxPoint x="437" y="-250" />
            </Array>
            <mxPoint x="347" y="230" as="sourcePoint" />
            <mxPoint x="447" y="-120" as="targetPoint" />
            <mxPoint as="offset" />
          </mxGeometry>
        </mxCell>
        <mxCell id="fER5kQKjIwSkImDIx6LC-7" style="edgeStyle=orthogonalEdgeStyle;rounded=0;orthogonalLoop=1;jettySize=auto;html=1;" parent="1" source="fER5kQKjIwSkImDIx6LC-5" target="fER5kQKjIwSkImDIx6LC-4" edge="1">
          <mxGeometry relative="1" as="geometry">
            <Array as="points">
              <mxPoint x="1500" y="-250" />
              <mxPoint x="1500" y="-20" />
            </Array>
          </mxGeometry>
        </mxCell>
        <mxCell id="fER5kQKjIwSkImDIx6LC-8" value="&lt;font style=&quot;&quot;&gt;find_by_user_id (user_id: str)&lt;/font&gt;" style="edgeLabel;html=1;align=center;verticalAlign=middle;resizable=0;points=[];fontColor=default;" parent="fER5kQKjIwSkImDIx6LC-7" vertex="1" connectable="0">
          <mxGeometry x="-0.0193" y="1" relative="1" as="geometry">
            <mxPoint y="-9" as="offset" />
          </mxGeometry>
        </mxCell>
        <mxCell id="fER5kQKjIwSkImDIx6LC-16" value="MongoTweetRepository" style="rounded=1;whiteSpace=wrap;html=1;" parent="1" vertex="1">
          <mxGeometry x="661.5" y="740" width="141" height="40" as="geometry" />
        </mxCell>
        <mxCell id="fER5kQKjIwSkImDIx6LC-17" value="save tweets" style="edgeStyle=orthogonalEdgeStyle;rounded=0;orthogonalLoop=1;jettySize=auto;html=1;entryX=0;entryY=0.5;entryDx=0;entryDy=0;exitX=1;exitY=0.5;exitDx=0;exitDy=0;" parent="1" source="6GBo-MGXtRTwtD-Rmwj8-6" target="fER5kQKjIwSkImDIx6LC-16" edge="1">
          <mxGeometry x="0.4147" y="11" relative="1" as="geometry">
            <Array as="points">
              <mxPoint x="417" y="265" />
              <mxPoint x="417" y="760" />
            </Array>
            <mxPoint x="387" y="316" as="sourcePoint" />
            <mxPoint x="457" y="540.97" as="targetPoint" />
            <mxPoint as="offset" />
          </mxGeometry>
        </mxCell>
        <mxCell id="fER5kQKjIwSkImDIx6LC-18" value="save_all (tweets)" style="edgeStyle=orthogonalEdgeStyle;rounded=0;orthogonalLoop=1;jettySize=auto;html=1;" parent="1" source="fER5kQKjIwSkImDIx6LC-16" target="fER5kQKjIwSkImDIx6LC-4" edge="1">
          <mxGeometry x="-0.6923" y="11" relative="1" as="geometry">
            <mxPoint x="857" y="440.23" as="sourcePoint" />
            <mxPoint x="1192" y="92" as="targetPoint" />
            <mxPoint as="offset" />
          </mxGeometry>
        </mxCell>
        <mxCell id="mtawYaKO-lGH9iTYJ4dF-18" value="get not published tweets of the user" style="edgeStyle=orthogonalEdgeStyle;rounded=0;orthogonalLoop=1;jettySize=auto;html=1;" parent="1" source="fER5kQKjIwSkImDIx6LC-20" target="mtawYaKO-lGH9iTYJ4dF-17" edge="1">
          <mxGeometry x="0.1429" y="14" relative="1" as="geometry">
            <mxPoint as="offset" />
          </mxGeometry>
        </mxCell>
        <mxCell id="fER5kQKjIwSkImDIx6LC-20" value="PublishingPipelineService" style="rounded=1;whiteSpace=wrap;html=1;" parent="1" vertex="1">
          <mxGeometry x="191" y="939" width="200" height="50" as="geometry" />
        </mxCell>
        <mxCell id="fER5kQKjIwSkImDIx6LC-21" value="POST /pipelines/publication/run/{user_id}&lt;div&gt;&lt;font style=&quot;color: rgb(255, 255, 255);&quot;&gt;&lt;span style=&quot;&quot;&gt;&amp;nbsp;&lt;br&gt;&lt;/span&gt;run_for_user&lt;span style=&quot;&quot;&gt;&lt;/span&gt;&lt;/font&gt;&lt;/div&gt;&lt;div&gt;&lt;font style=&quot;color: rgb(255, 255, 255);&quot;&gt;&lt;span style=&quot;&quot;&gt;(user_id,&amp;nbsp;&lt;/span&gt;&lt;/font&gt;&lt;/div&gt;&lt;div&gt;&lt;font style=&quot;color: rgb(255, 255, 255);&quot;&gt;&lt;span style=&quot;background-color: light-dark(#ffffff, var(--ge-dark-color, #121212));&quot;&gt;max_tweets_to_fetch_from_db&lt;/span&gt;&lt;span style=&quot;color: rgb(255, 255, 255);&quot;&gt;,&lt;/span&gt;&lt;/font&gt;&lt;/div&gt;&lt;div&gt;&lt;font style=&quot;color: rgb(255, 255, 255);&quot;&gt;&lt;span style=&quot;background-color: light-dark(#ffffff, var(--ge-dark-color, #121212));&quot;&gt;max_tweets_to_publish&lt;/span&gt;&lt;span style=&quot;color: rgb(255, 255, 255);&quot;&gt;)&lt;/span&gt;&lt;/font&gt;&lt;/div&gt;" style="edgeStyle=orthogonalEdgeStyle;rounded=0;orthogonalLoop=1;jettySize=auto;html=1;exitX=0.5;exitY=1;exitDx=0;exitDy=0;entryX=0;entryY=0.5;entryDx=0;entryDy=0;align=right;" parent="1" source="6GBo-MGXtRTwtD-Rmwj8-3" target="fER5kQKjIwSkImDIx6LC-20" edge="1">
          <mxGeometry x="0.7849" y="60" relative="1" as="geometry">
            <mxPoint x="167" y="390" as="sourcePoint" />
            <mxPoint x="247" y="390" as="targetPoint" />
            <mxPoint as="offset" />
          </mxGeometry>
        </mxCell>
        <mxCell id="jY2OCNrgS8mA-RcgLJY7-1" value="&lt;font style=&quot;color: rgb(255, 255, 255);&quot;&gt;&lt;span style=&quot;text-align: center;&quot;&gt;POST /pipelines/ingestion/run/{user_id}&amp;nbsp;&lt;/span&gt;&lt;/font&gt;&lt;div&gt;&lt;font style=&quot;color: rgb(255, 255, 255);&quot;&gt;&lt;br&gt;&lt;/font&gt;&lt;/div&gt;&lt;div&gt;&lt;span style=&quot;background-color: light-dark(#ffffff, var(--ge-dark-color, #121212));&quot;&gt;run_for_user&lt;/span&gt;&lt;/div&gt;&lt;div&gt;&lt;div&gt;&lt;font style=&quot;color: rgb(255, 255, 255);&quot;&gt;&lt;span style=&quot;background-color: light-dark(#ffffff, var(--ge-dark-color, #121212));&quot;&gt;(&lt;/span&gt;&lt;span style=&quot;background-color: light-dark(#ffffff, var(--ge-dark-color, #121212));&quot;&gt;user_id,&lt;/span&gt;&lt;/font&gt;&lt;div&gt;&lt;div&gt;&lt;font style=&quot;color: rgb(255, 255, 255);&quot;&gt;prompt_file,&lt;/font&gt;&lt;/div&gt;&lt;div&gt;&lt;span style=&quot;background-color: light-dark(#ffffff, var(--ge-dark-color, #121212));&quot;&gt;max_videos_to_fetch_per_channel&lt;/span&gt;&lt;span style=&quot;background-color: light-dark(#ffffff, var(--ge-dark-color, #121212));&quot;&gt;&lt;font style=&quot;color: rgb(255, 255, 255);&quot;&gt;,&lt;/font&gt;&lt;/span&gt;&lt;/div&gt;&lt;div&gt;&lt;font style=&quot;color: rgb(255, 255, 255);&quot;&gt;&lt;span style=&quot;background-color: light-dark(#ffffff, var(--ge-dark-color, #121212));&quot;&gt;max_tweets_to_generate_per_video&lt;/span&gt;&lt;span style=&quot;color: rgb(255, 255, 255); background-color: light-dark(#ffffff, var(--ge-dark-color, #121212));&quot;&gt;)&lt;br&gt;&lt;/span&gt;&lt;/font&gt;&lt;/div&gt;&lt;/div&gt;&lt;/div&gt;&lt;/div&gt;" style="edgeLabel;html=1;align=right;verticalAlign=middle;resizable=0;points=[];" parent="1" vertex="1" connectable="0">
          <mxGeometry x="177" y="209" as="geometry">
            <mxPoint x="-22" y="-10" as="offset" />
          </mxGeometry>
        </mxCell>
        <mxCell id="mtawYaKO-lGH9iTYJ4dF-5" value="save (tweet_generation)" style="edgeStyle=orthogonalEdgeStyle;rounded=0;orthogonalLoop=1;jettySize=auto;html=1;" parent="1" source="mtawYaKO-lGH9iTYJ4dF-3" target="fER5kQKjIwSkImDIx6LC-4" edge="1">
          <mxGeometry x="-0.6025" y="10" relative="1" as="geometry">
            <mxPoint as="offset" />
          </mxGeometry>
        </mxCell>
        <mxCell id="mtawYaKO-lGH9iTYJ4dF-3" value="MongoTweetGenerationRepository" style="rounded=1;whiteSpace=wrap;html=1;" parent="1" vertex="1">
          <mxGeometry x="640" y="660" width="205" height="40" as="geometry" />
        </mxCell>
        <mxCell id="mtawYaKO-lGH9iTYJ4dF-4" value="save tweet generation metadata" style="rounded=0;orthogonalLoop=1;jettySize=auto;html=1;entryX=0;entryY=0.5;entryDx=0;entryDy=0;exitX=1;exitY=0.5;exitDx=0;exitDy=0;edgeStyle=orthogonalEdgeStyle;" parent="1" source="6GBo-MGXtRTwtD-Rmwj8-6" target="mtawYaKO-lGH9iTYJ4dF-3" edge="1">
          <mxGeometry x="0.6707" y="10" relative="1" as="geometry">
            <Array as="points">
              <mxPoint x="437" y="265" />
              <mxPoint x="437" y="680" />
            </Array>
            <mxPoint x="427" y="300" as="sourcePoint" />
            <mxPoint x="647" y="476" as="targetPoint" />
            <mxPoint as="offset" />
          </mxGeometry>
        </mxCell>
        <mxCell id="mtawYaKO-lGH9iTYJ4dF-9" value="find_by_id (user_id: str)" style="edgeStyle=orthogonalEdgeStyle;rounded=0;orthogonalLoop=1;jettySize=auto;html=1;" parent="1" source="mtawYaKO-lGH9iTYJ4dF-7" target="fER5kQKjIwSkImDIx6LC-4" edge="1">
          <mxGeometry x="-0.5549" y="10" relative="1" as="geometry">
            <mxPoint as="offset" />
          </mxGeometry>
        </mxCell>
        <mxCell id="mtawYaKO-lGH9iTYJ4dF-7" value="MongoUserRepository" style="rounded=1;whiteSpace=wrap;html=1;" parent="1" vertex="1">
          <mxGeometry x="607" y="-340" width="130" height="40" as="geometry" />
        </mxCell>
        <mxCell id="mtawYaKO-lGH9iTYJ4dF-8" value="validate user" style="rounded=0;orthogonalLoop=1;jettySize=auto;html=1;exitX=1;exitY=0.5;exitDx=0;exitDy=0;edgeStyle=orthogonalEdgeStyle;entryX=0;entryY=0.5;entryDx=0;entryDy=0;" parent="1" source="6GBo-MGXtRTwtD-Rmwj8-6" target="mtawYaKO-lGH9iTYJ4dF-7" edge="1">
          <mxGeometry x="0.6788" y="10" relative="1" as="geometry">
            <Array as="points">
              <mxPoint x="417" y="265" />
              <mxPoint x="417" y="-320" />
            </Array>
            <mxPoint x="377" y="209" as="sourcePoint" />
            <mxPoint x="597" y="-156" as="targetPoint" />
            <mxPoint as="offset" />
          </mxGeometry>
        </mxCell>
        <mxCell id="mtawYaKO-lGH9iTYJ4dF-14" value="MongoUserRepository" style="rounded=1;whiteSpace=wrap;html=1;" parent="1" vertex="1">
          <mxGeometry x="661" y="859" width="130" height="40" as="geometry" />
        </mxCell>
        <mxCell id="mtawYaKO-lGH9iTYJ4dF-15" value="validate user" style="rounded=0;orthogonalLoop=1;jettySize=auto;html=1;exitX=1;exitY=0.5;exitDx=0;exitDy=0;entryX=0;entryY=0.5;entryDx=0;entryDy=0;edgeStyle=orthogonalEdgeStyle;" parent="1" source="fER5kQKjIwSkImDIx6LC-20" target="mtawYaKO-lGH9iTYJ4dF-14" edge="1">
          <mxGeometry x="0.5304" y="9" relative="1" as="geometry">
            <Array as="points">
              <mxPoint x="437" y="964" />
              <mxPoint x="437" y="879" />
            </Array>
            <mxPoint x="467" y="655" as="sourcePoint" />
            <mxPoint x="667" y="730" as="targetPoint" />
            <mxPoint as="offset" />
          </mxGeometry>
        </mxCell>
        <mxCell id="mtawYaKO-lGH9iTYJ4dF-16" value="find_by_id (user_id: str)" style="rounded=0;orthogonalLoop=1;jettySize=auto;html=1;edgeStyle=orthogonalEdgeStyle;entryX=0.5;entryY=1;entryDx=0;entryDy=0;exitX=1;exitY=0.5;exitDx=0;exitDy=0;entryPerimeter=0;" parent="1" source="mtawYaKO-lGH9iTYJ4dF-14" target="fER5kQKjIwSkImDIx6LC-4" edge="1">
          <mxGeometry x="-0.5853" y="9" relative="1" as="geometry">
            <Array as="points">
              <mxPoint x="1630" y="880" />
              <mxPoint x="1630" y="40" />
            </Array>
            <mxPoint x="747" y="610" as="sourcePoint" />
            <mxPoint x="1467" y="190" as="targetPoint" />
            <mxPoint as="offset" />
          </mxGeometry>
        </mxCell>
        <mxCell id="mtawYaKO-lGH9iTYJ4dF-17" value="MongoTweetRepository" style="rounded=1;whiteSpace=wrap;html=1;" parent="1" vertex="1">
          <mxGeometry x="656" y="944" width="140" height="40" as="geometry" />
        </mxCell>
        <mxCell id="mtawYaKO-lGH9iTYJ4dF-19" value="find_not_published_by_user (user_id: str, limit: int)&amp;nbsp;-&amp;gt; List[Tweet]" style="rounded=0;orthogonalLoop=1;jettySize=auto;html=1;edgeStyle=orthogonalEdgeStyle;entryX=0.5;entryY=1;entryDx=0;entryDy=0;entryPerimeter=0;" parent="1" source="mtawYaKO-lGH9iTYJ4dF-17" target="fER5kQKjIwSkImDIx6LC-4" edge="1">
          <mxGeometry x="-0.6239" y="14" relative="1" as="geometry">
            <Array as="points">
              <mxPoint x="1570" y="970" />
              <mxPoint x="1570" y="40" />
            </Array>
            <mxPoint x="769" y="708" as="sourcePoint" />
            <mxPoint x="1197" y="120" as="targetPoint" />
            <mxPoint as="offset" />
          </mxGeometry>
        </mxCell>
        <mxCell id="mtawYaKO-lGH9iTYJ4dF-20" value="&lt;div style=&quot;text-align: center;&quot;&gt;&lt;span style=&quot;background-color: transparent; color: light-dark(rgb(0, 0, 0), rgb(255, 255, 255));&quot;&gt;mongo collection&amp;nbsp;&lt;/span&gt;&lt;/div&gt;&lt;div style=&quot;text-align: center;&quot;&gt;&lt;span style=&quot;background-color: transparent; color: light-dark(rgb(0, 0, 0), rgb(255, 255, 255));&quot;&gt;{&lt;/span&gt;&lt;b&gt;prompts&lt;/b&gt;&lt;span style=&quot;background-color: transparent; color: light-dark(rgb(0, 0, 0), rgb(255, 255, 255));&quot;&gt;}&lt;/span&gt;&lt;/div&gt;&lt;div&gt;&lt;div&gt;{&lt;/div&gt;&lt;div&gt;&amp;nbsp; _id: ObjectId,&lt;/div&gt;&lt;div&gt;&amp;nbsp; userId: ObjectId,&lt;span style=&quot;white-space: pre;&quot;&gt;&#x9;&lt;/span&gt;&lt;span style=&quot;white-space: pre;&quot;&gt;&#x9;&lt;/span&gt;&lt;span style=&quot;white-space: pre;&quot;&gt;&#x9;&lt;/span&gt;&lt;span style=&quot;background-color: transparent;&quot;&gt;// FK → users._id&lt;/span&gt;&lt;/div&gt;&lt;div&gt;&lt;div&gt;&amp;nbsp; channelId: ObjectId,&amp;nbsp; &amp;nbsp; &amp;nbsp; &amp;nbsp; &amp;nbsp; &amp;nbsp; &lt;span style=&quot;white-space: pre;&quot;&gt;&#x9;&lt;/span&gt;// FK → channels._id&lt;/div&gt;&lt;/div&gt;&lt;div&gt;&amp;nbsp; text: String,&lt;/div&gt;&lt;div&gt;&amp;nbsp; languageOfTheText: String,&lt;span style=&quot;white-space: pre;&quot;&gt;&#x9;&lt;/span&gt;&lt;span style=&quot;white-space: pre;&quot;&gt;&#x9;&lt;/span&gt;&lt;span style=&quot;white-space: pre;&quot;&gt;&#x9;&lt;/span&gt;// language of the text (ISO 639 - Set 2)&lt;/div&gt;&lt;div&gt;&lt;font&gt;&amp;nbsp; languageToGenerateTweets: String,&lt;span style=&quot;white-space: pre;&quot;&gt;&#x9;&lt;span style=&quot;white-space: pre;&quot;&gt;&#x9;&lt;/span&gt;&lt;span style=&quot;white-space: pre;&quot;&gt;&#x9;&lt;/span&gt;&lt;/span&gt;&lt;span style=&quot;background-color: transparent;&quot;&gt;// language of the tweets to generate (ISO 639 - Set 2)&lt;/span&gt;&lt;/font&gt;&lt;/div&gt;&lt;div&gt;&lt;span style=&quot;background-color: transparent; color: light-dark(rgb(255, 255, 255), rgb(18, 18, 18));&quot;&gt;&amp;nbsp;&amp;nbsp;&lt;/span&gt;&lt;span style=&quot;background-color: transparent;&quot;&gt;maxTweetsToGeneratePerVideo: Number,&lt;/span&gt;&lt;/div&gt;&lt;div&gt;&lt;span style=&quot;background-color: transparent;&quot;&gt;&lt;div&gt;&amp;nbsp; createdAt: Date,&lt;/div&gt;&lt;div&gt;&lt;div&gt;&amp;nbsp; updatedAt: Date&lt;/div&gt;&lt;/div&gt;&lt;div&gt;}&lt;/div&gt;&lt;/span&gt;&lt;/div&gt;&lt;div&gt;&lt;br&gt;&lt;/div&gt;&lt;/div&gt;" style="rounded=0;whiteSpace=wrap;html=1;align=left;fillColor=#60a917;strokeColor=#2D7600;fontColor=#ffffff;" parent="1" vertex="1">
          <mxGeometry x="790" y="1398" width="660" height="215" as="geometry" />
        </mxCell>
        <mxCell id="YeQcEhxph-pK-XzqHGoJ-2" value="MongoTweetRepository" style="rounded=1;whiteSpace=wrap;html=1;" parent="1" vertex="1">
          <mxGeometry x="656" y="1143" width="140" height="40" as="geometry" />
        </mxCell>
        <mxCell id="YeQcEhxph-pK-XzqHGoJ-3" value="update (tweet: Tweet)&amp;nbsp;-&amp;gt; None" style="rounded=0;orthogonalLoop=1;jettySize=auto;html=1;edgeStyle=orthogonalEdgeStyle;" parent="1" source="YeQcEhxph-pK-XzqHGoJ-2" target="fER5kQKjIwSkImDIx6LC-4" edge="1">
          <mxGeometry x="-0.6514" y="13" relative="1" as="geometry">
            <Array as="points">
              <mxPoint x="1585" y="1163" />
            </Array>
            <mxPoint x="769" y="907" as="sourcePoint" />
            <mxPoint x="1192" y="240" as="targetPoint" />
            <mxPoint as="offset" />
          </mxGeometry>
        </mxCell>
        <mxCell id="YeQcEhxph-pK-XzqHGoJ-4" value="update tweet metadata" style="rounded=0;orthogonalLoop=1;jettySize=auto;html=1;exitX=1;exitY=0.5;exitDx=0;exitDy=0;edgeStyle=orthogonalEdgeStyle;" parent="1" source="fER5kQKjIwSkImDIx6LC-20" target="YeQcEhxph-pK-XzqHGoJ-2" edge="1">
          <mxGeometry x="0.4881" y="10" relative="1" as="geometry">
            <Array as="points">
              <mxPoint x="437" y="964" />
              <mxPoint x="437" y="1162" />
            </Array>
            <mxPoint as="offset" />
            <mxPoint x="387" y="1053" as="sourcePoint" />
            <mxPoint x="657" y="1162" as="targetPoint" />
          </mxGeometry>
        </mxCell>
        <mxCell id="YeQcEhxph-pK-XzqHGoJ-10" value="Entities created and configured by the user ---&amp;gt;" style="text;html=1;align=center;verticalAlign=middle;whiteSpace=wrap;rounded=0;fontSize=20;" parent="1" vertex="1">
          <mxGeometry x="-490" y="1464" width="420" height="30" as="geometry" />
        </mxCell>
        <mxCell id="YeQcEhxph-pK-XzqHGoJ-11" value="Entities NOT created nor configured by the user ---&amp;gt;" style="text;html=1;align=center;verticalAlign=middle;whiteSpace=wrap;rounded=0;fontSize=20;" parent="1" vertex="1">
          <mxGeometry x="-510" y="1842" width="500" height="30" as="geometry" />
        </mxCell>
        <mxCell id="rlvCbcj3rPkf0yOsHz8D-2" value="&lt;div style=&quot;text-align: center;&quot;&gt;&lt;span style=&quot;background-color: transparent; color: light-dark(rgb(0, 0, 0), rgb(255, 255, 255));&quot;&gt;mongo collection&amp;nbsp;&lt;/span&gt;&lt;/div&gt;&lt;div style=&quot;text-align: center;&quot;&gt;&lt;span style=&quot;background-color: transparent; color: light-dark(rgb(0, 0, 0), rgb(255, 255, 255));&quot;&gt;{&lt;/span&gt;&lt;span style=&quot;background-color: transparent;&quot;&gt;&lt;b&gt;&lt;font style=&quot;color: light-dark(rgb(255, 255, 255), rgb(255, 255, 255));&quot;&gt;application_config&lt;/font&gt;&lt;/b&gt;&lt;font style=&quot;color: light-dark(rgb(255, 255, 255), rgb(255, 255, 255));&quot;&gt;}&lt;/font&gt;&lt;/span&gt;&lt;/div&gt;&lt;div&gt;&lt;div&gt;{&lt;/div&gt;&lt;div&gt;&amp;nbsp; _id: ObjectId,&lt;/div&gt;&lt;div&gt;&amp;nbsp; scheduler:&lt;/div&gt;&lt;div&gt;&lt;span style=&quot;white-space: pre;&quot;&gt;&#x9;&lt;/span&gt;{&lt;/div&gt;&lt;div&gt;&lt;span style=&quot;white-space: pre;&quot;&gt;&#x9;&lt;/span&gt;&lt;span style=&quot;white-space: pre;&quot;&gt;&#x9;&lt;/span&gt;&lt;span style=&quot;background-color: transparent;&quot;&gt;ingestion_minutes: number,&lt;/span&gt;&lt;/div&gt;&lt;div&gt;&lt;span style=&quot;background-color: transparent;&quot;&gt;&lt;span style=&quot;white-space: pre;&quot;&gt;&#x9;&lt;/span&gt;&lt;span style=&quot;white-space: pre;&quot;&gt;&#x9;&lt;/span&gt;publishing_minutes: number&lt;/span&gt;&lt;/div&gt;&lt;div&gt;&lt;span style=&quot;white-space: pre;&quot;&gt;&#x9;&lt;/span&gt;}&amp;nbsp;&lt;/div&gt;&lt;div&gt;}&lt;/div&gt;&lt;/div&gt;" style="rounded=0;whiteSpace=wrap;html=1;align=left;fillColor=#60a917;strokeColor=#2D7600;fontColor=#ffffff;" parent="1" vertex="1">
          <mxGeometry x="1380" y="1756.25" width="320" height="198.5" as="geometry" />
        </mxCell>
        <mxCell id="vX8bgqYICqjiNDsotFaB-1" value="&lt;div style=&quot;text-align: center;&quot;&gt;&lt;span style=&quot;background-color: transparent;&quot;&gt;&lt;font style=&quot;color: light-dark(rgb(255, 255, 255), rgb(255, 255, 255));&quot;&gt;mongo collection&amp;nbsp;&lt;/font&gt;&lt;/span&gt;&lt;/div&gt;&lt;div style=&quot;text-align: center;&quot;&gt;&lt;font style=&quot;color: light-dark(rgb(255, 255, 255), rgb(255, 255, 255));&quot;&gt;&lt;span style=&quot;background-color: transparent;&quot;&gt;{&lt;/span&gt;&lt;b&gt;&lt;font style=&quot;&quot;&gt;prompts_master&lt;/font&gt;&lt;/b&gt;&lt;span style=&quot;background-color: transparent;&quot;&gt;}&lt;/span&gt;&lt;/font&gt;&lt;/div&gt;&lt;div&gt;&lt;div&gt;&lt;font style=&quot;color: light-dark(rgb(255, 255, 255), rgb(255, 255, 255));&quot;&gt;{&lt;/font&gt;&lt;/div&gt;&lt;div&gt;&lt;font style=&quot;color: light-dark(rgb(255, 255, 255), rgb(255, 255, 255));&quot;&gt;&amp;nbsp; _id: ObjectId,&lt;/font&gt;&lt;/div&gt;&lt;div&gt;&lt;span style=&quot;background-color: transparent;&quot;&gt;&lt;font style=&quot;color: light-dark(rgb(255, 255, 255), rgb(255, 255, 255));&quot;&gt;&amp;nbsp; text: String,&lt;/font&gt;&lt;/span&gt;&lt;/div&gt;&lt;div&gt;&lt;font style=&quot;color: light-dark(rgb(255, 255, 255), rgb(255, 255, 255));&quot;&gt;&amp;nbsp; languageOfTheText: String,&lt;span style=&quot;white-space: pre;&quot;&gt;&#x9;&lt;/span&gt;&lt;span style=&quot;white-space: pre;&quot;&gt;&#x9;&lt;/span&gt;&lt;span style=&quot;white-space: pre;&quot;&gt;&#x9;&lt;span style=&quot;white-space: pre;&quot;&gt;&#x9;&lt;/span&gt;&lt;span style=&quot;white-space: pre;&quot;&gt;&#x9;&lt;/span&gt;&lt;/span&gt;// language of the text (ISO 639 - Set 2)&lt;/font&gt;&lt;/div&gt;&lt;div&gt;&lt;font style=&quot;color: light-dark(rgb(255, 255, 255), rgb(255, 255, 255));&quot;&gt;&amp;nbsp; category: String,&lt;span style=&quot;white-space: pre;&quot;&gt;&#x9;&lt;/span&gt;&lt;span style=&quot;white-space: pre;&quot;&gt;&#x9;&lt;/span&gt;&lt;span style=&quot;white-space: pre;&quot;&gt;&#x9;&lt;/span&gt;&lt;span style=&quot;white-space: pre;&quot;&gt;&#x9;&lt;/span&gt;&lt;span style=&quot;white-space: pre;&quot;&gt;&#x9;&lt;/span&gt;&lt;span style=&quot;white-space: pre;&quot;&gt;&#x9;&lt;/span&gt;&lt;span style=&quot;white-space: pre;&quot;&gt;&#x9;&lt;/span&gt;// Finance, Sports, Food, etc...&lt;/font&gt;&lt;/div&gt;&lt;div&gt;&lt;font style=&quot;color: light-dark(rgb(255, 255, 255), rgb(255, 255, 255));&quot;&gt;&amp;nbsp; subcategory: String,&lt;span style=&quot;white-space: pre;&quot;&gt;&#x9;&lt;/span&gt;&lt;span style=&quot;white-space: pre;&quot;&gt;&#x9;&lt;/span&gt;&lt;span style=&quot;white-space: pre;&quot;&gt;&#x9;&lt;/span&gt;&lt;span style=&quot;white-space: pre;&quot;&gt;&#x9;&lt;/span&gt;&lt;span style=&quot;white-space: pre;&quot;&gt;&#x9;&lt;/span&gt;&lt;span style=&quot;white-space: pre;&quot;&gt;&#x9;&lt;/span&gt;// Investing, Futbol, Cooking, etc...&lt;/font&gt;&lt;/div&gt;&lt;div&gt;&lt;span style=&quot;background-color: transparent;&quot;&gt;&lt;font style=&quot;color: light-dark(rgb(255, 255, 255), rgb(255, 255, 255));&quot;&gt;&amp;nbsp; createdAt: Date,&lt;/font&gt;&lt;/span&gt;&lt;/div&gt;&lt;div&gt;&lt;span style=&quot;background-color: transparent;&quot;&gt;&lt;font style=&quot;color: light-dark(rgb(255, 255, 255), rgb(255, 255, 255));&quot;&gt;&lt;div&gt;&lt;div&gt;&amp;nbsp; updatedAt: Date&lt;/div&gt;&lt;/div&gt;&lt;div&gt;}&lt;/div&gt;&lt;/font&gt;&lt;/span&gt;&lt;/div&gt;&lt;div&gt;&lt;br&gt;&lt;/div&gt;&lt;/div&gt;" style="rounded=0;whiteSpace=wrap;html=1;align=left;fillColor=#e51400;strokeColor=#B20000;fontColor=#ffffff;" parent="1" vertex="1">
          <mxGeometry x="1750" y="1749.5" width="660" height="215" as="geometry" />
        </mxCell>
        <mxCell id="37fVEJxlYI5hCLpPLEm2-7" style="edgeStyle=orthogonalEdgeStyle;rounded=0;orthogonalLoop=1;jettySize=auto;html=1;" parent="1" source="37fVEJxlYI5hCLpPLEm2-4" target="37fVEJxlYI5hCLpPLEm2-6" edge="1">
          <mxGeometry relative="1" as="geometry" />
        </mxCell>
        <mxCell id="37fVEJxlYI5hCLpPLEm2-5" value="get transcript of the video" style="edgeStyle=orthogonalEdgeStyle;rounded=0;orthogonalLoop=1;jettySize=auto;html=1;exitX=1;exitY=0.5;exitDx=0;exitDy=0;" parent="1" source="6GBo-MGXtRTwtD-Rmwj8-6" target="37fVEJxlYI5hCLpPLEm2-4" edge="1">
          <mxGeometry x="0.5611" y="10" relative="1" as="geometry">
            <Array as="points">
              <mxPoint x="480" y="265" />
              <mxPoint x="480" y="-30" />
            </Array>
            <mxPoint as="offset" />
            <mxPoint x="370" y="170" as="sourcePoint" />
            <mxPoint x="624" y="130" as="targetPoint" />
          </mxGeometry>
        </mxCell>
        <mxCell id="37fVEJxlYI5hCLpPLEm2-6" value="YouTube Captions&amp;nbsp;&lt;span style=&quot;background-color: transparent; color: light-dark(rgb(0, 0, 0), rgb(255, 255, 255));&quot;&gt;API&lt;/span&gt;&lt;div&gt;&lt;span style=&quot;background-color: transparent; color: light-dark(rgb(0, 0, 0), rgb(255, 255, 255));&quot;&gt;(&lt;/span&gt;&lt;span style=&quot;background-color: transparent;&quot;&gt;timedtext&lt;/span&gt;&lt;span style=&quot;background-color: transparent; color: light-dark(rgb(0, 0, 0), rgb(255, 255, 255));&quot;&gt;)&lt;/span&gt;&lt;/div&gt;" style="ellipse;whiteSpace=wrap;html=1;" parent="1" vertex="1">
          <mxGeometry x="1088.5" y="-60" width="130" height="80" as="geometry" />
        </mxCell>
        <mxCell id="37fVEJxlYI5hCLpPLEm2-11" value="find_by_user_and_channel (user_id: str, channel_id: str)" style="edgeStyle=orthogonalEdgeStyle;rounded=0;orthogonalLoop=1;jettySize=auto;html=1;" parent="1" source="37fVEJxlYI5hCLpPLEm2-8" target="fER5kQKjIwSkImDIx6LC-4" edge="1">
          <mxGeometry x="-0.5584" y="10" relative="1" as="geometry">
            <mxPoint as="offset" />
          </mxGeometry>
        </mxCell>
        <mxCell id="37fVEJxlYI5hCLpPLEm2-8" value="MongoTweetRepository" style="rounded=1;whiteSpace=wrap;html=1;" parent="1" vertex="1">
          <mxGeometry x="682" y="410" width="141" height="40" as="geometry" />
        </mxCell>
        <mxCell id="37fVEJxlYI5hCLpPLEm2-12" value="PromptComposerService" style="rounded=1;whiteSpace=wrap;html=1;" parent="1" vertex="1">
          <mxGeometry x="737" y="500" width="146" height="40" as="geometry" />
        </mxCell>
        <mxCell id="37fVEJxlYI5hCLpPLEm2-22" style="edgeStyle=orthogonalEdgeStyle;rounded=0;orthogonalLoop=1;jettySize=auto;html=1;" parent="1" source="37fVEJxlYI5hCLpPLEm2-15" target="37fVEJxlYI5hCLpPLEm2-21" edge="1">
          <mxGeometry relative="1" as="geometry" />
        </mxCell>
        <mxCell id="37fVEJxlYI5hCLpPLEm2-15" value="YouTubeTranscriptionClientOfficialPublicPlayerAPI" style="rounded=1;whiteSpace=wrap;html=1;fillColor=#a20025;fontColor=#ffffff;strokeColor=#6F0000;" parent="1" vertex="1">
          <mxGeometry x="705" y="209" width="320" height="40" as="geometry" />
        </mxCell>
        <mxCell id="37fVEJxlYI5hCLpPLEm2-20" value="" style="group" parent="1" vertex="1" connectable="0">
          <mxGeometry x="710" y="70" width="380" height="90" as="geometry" />
        </mxCell>
        <mxCell id="6GBo-MGXtRTwtD-Rmwj8-16" value="YouTubeTranscriptionClientOfficialDataAPI" style="rounded=1;whiteSpace=wrap;html=1;" parent="37fVEJxlYI5hCLpPLEm2-20" vertex="1">
          <mxGeometry width="380" height="40" as="geometry" />
        </mxCell>
        <mxCell id="37fVEJxlYI5hCLpPLEm2-3" value="youtube_client&lt;div&gt;(&lt;span style=&quot;background-color: transparent; color: light-dark(rgb(0, 0, 0), rgb(255, 255, 255));&quot;&gt;YOUTUBE_OAUTH_CLIENT_ID,&lt;br&gt;&lt;/span&gt;&lt;div&gt;&lt;span style=&quot;background-color: transparent;&quot;&gt;YOUTUBE_OAUTH_CLIENT_SECRET,&lt;/span&gt;&lt;/div&gt;&lt;div&gt;&lt;span style=&quot;background-color: transparent;&quot;&gt;YOUTUBE_OAUTH_CLIENT_REFRESH_TOKEN&lt;/span&gt;&lt;span style=&quot;background-color: transparent; color: light-dark(rgb(0, 0, 0), rgb(255, 255, 255));&quot;&gt;)&lt;/span&gt;&lt;/div&gt;&lt;/div&gt;" style="text;html=1;align=left;verticalAlign=middle;whiteSpace=wrap;rounded=0;fontSize=10;" parent="37fVEJxlYI5hCLpPLEm2-20" vertex="1">
          <mxGeometry x="3" y="40" width="239" height="50" as="geometry" />
        </mxCell>
        <mxCell id="37fVEJxlYI5hCLpPLEm2-21" value="YouTube Public Player&amp;nbsp;&lt;span style=&quot;background-color: transparent; color: light-dark(rgb(0, 0, 0), rgb(255, 255, 255));&quot;&gt;API&lt;/span&gt;&lt;div&gt;&lt;span style=&quot;background-color: transparent; color: light-dark(rgb(0, 0, 0), rgb(255, 255, 255));&quot;&gt;(&lt;/span&gt;&lt;span style=&quot;background-color: transparent;&quot;&gt;ytInitialPlayerResponse&lt;/span&gt;&lt;span style=&quot;background-color: transparent; color: light-dark(rgb(0, 0, 0), rgb(255, 255, 255));&quot;&gt;)&lt;/span&gt;&lt;/div&gt;" style="ellipse;whiteSpace=wrap;html=1;" parent="1" vertex="1">
          <mxGeometry x="1079" y="181.5" width="161.5" height="95" as="geometry" />
        </mxCell>
        <mxCell id="37fVEJxlYI5hCLpPLEm2-4" value="YouTubeTranscriptionClientOfficialCaptionsAPI" style="rounded=1;whiteSpace=wrap;html=1;" parent="1" vertex="1">
          <mxGeometry x="730" y="-40" width="270" height="40" as="geometry" />
        </mxCell>
        <mxCell id="37fVEJxlYI5hCLpPLEm2-26" value="" style="group" parent="1" vertex="1" connectable="0">
          <mxGeometry x="676.5" y="-180" width="130" height="85" as="geometry" />
        </mxCell>
        <mxCell id="6GBo-MGXtRTwtD-Rmwj8-11" value="YouTubeVideoClient" style="rounded=1;whiteSpace=wrap;html=1;" parent="37fVEJxlYI5hCLpPLEm2-26" vertex="1">
          <mxGeometry width="130" height="60" as="geometry" />
        </mxCell>
        <mxCell id="37fVEJxlYI5hCLpPLEm2-1" value="YOUTUBE_API_KEY" style="text;html=1;align=center;verticalAlign=middle;whiteSpace=wrap;rounded=0;fontSize=10;" parent="37fVEJxlYI5hCLpPLEm2-26" vertex="1">
          <mxGeometry x="12.5" y="55" width="108" height="30" as="geometry" />
        </mxCell>
      </root>
    </mxGraphModel>
  </diagram>
</mxfile>
